<?xml version="1.0" encoding="iso-8859-1"?>
<!-- Generator: Adobe Illustrator 21.0.0, SVG Export Plug-In . SVG Version: 6.00 Build 0)  -->
<svg xmlns="http://www.w3.org/2000/svg" xmlns:xlink="http://www.w3.org/1999/xlink" version="1.1" id="Capa_1" x="0px" y="0px" viewBox="0 0 512 512" style="enable-background:new 0 0 512 512;" xml:space="preserve" width="512" height="512">
<g>
	<g>
		<path style="fill:#FFCBBC;" d="M383.026,462.5h-254c-8.284,0-15-6.716-15-15s6.716-15,15-15c23.159,0,42-18.841,42-42v-35.995    c0-8.161,6.524-14.825,14.684-14.997c46.216-0.975,133.767-2.831,139.542-2.99c0.257-0.013,0.515-0.02,0.774-0.02    c8.223,0,14.945,6.621,15.032,14.843c0.001,0.076,0.001,0.371-0.032,0.828v38.33c0,23.159,18.841,42,42,42c8.284,0,15,6.716,15,15    S391.311,462.5,383.026,462.5z"/>
	</g>
	<path style="fill:#FFBCA8;" d="M383.026,432.5c-23.159,0-42-18.841-42-42v-38.33c0.033-0.457,0.033-0.752,0.032-0.828   c-0.087-8.222-6.81-14.843-15.032-14.843c-0.26,0-0.518,0.007-0.774,0.02c-3.372,0.093-34.627,0.764-69.252,1.501V462.5h127.026   c8.284,0,15-6.716,15-15S391.311,432.5,383.026,432.5z"/>
	<g>
		<path style="fill:#FFDCCD;" d="M254.181,401.2c-21.966,0-56.271-16.853-85.365-41.935c-16.465-14.195-29.354-30.652-38.379-48.988    c-17.8-9.058-30.971-29.666-34.319-54.533c-3.352-24.895,4.12-48.508,18.909-61.866c0,0-17.526-144.378,141-144.378    C396,49.5,397.027,193.927,397.027,193.927c14.751,13.369,22.203,36.965,18.855,61.817c-3.593,26.682-19.009,48.739-38.629,56.447    c-5.784,10.033-12.885,19.646-21.163,28.644c-0.001,0-0.001,0-0.001,0C324.943,374.685,280.18,401.2,254.181,401.2z     M345.052,330.679h0.01H345.052z"/>
	</g>
	<path style="fill:#FFCBBC;" d="M397.027,193.927c0,0-1.027-144.427-141.001-144.427c-0.009,0-0.018,0-0.026,0v351.644   c26.226-1.173,69.654-27.231,100.09-60.308c0,0,0,0,0.001,0c8.278-8.998,15.379-18.61,21.163-28.644   c19.62-7.708,35.036-29.765,38.629-56.447C419.23,230.892,411.778,207.295,397.027,193.927z"/>
	<g>
		<path style="fill:#00347B;" d="M15,93C6.716,93,0,86.285,0,78V15C0,6.716,6.716,0,15,0h62.996c8.284,0,15,6.716,15,15    s-6.716,15-15,15H30v48C30,86.285,23.284,93,15,93z"/>
	</g>
	<g>
		<path style="fill:#001035;" d="M497,93c-8.284,0-15-6.716-15-15V30h-47.996c-8.284,0-15-6.716-15-15s6.716-15,15-15H497    c8.284,0,15,6.716,15,15v63C512,86.285,505.284,93,497,93z"/>
	</g>
	<g>
		<path style="fill:#00347B;" d="M77.996,512H15c-8.284,0-15-6.716-15-15v-63c0-8.284,6.716-15,15-15s15,6.716,15,15v48h47.996    c8.284,0,15,6.716,15,15S86.28,512,77.996,512z"/>
	</g>
	<g>
		<path style="fill:#001035;" d="M497,512h-62.996c-8.284,0-15-6.716-15-15s6.716-15,15-15H482v-48c0-8.284,6.716-15,15-15    s15,6.716,15,15v63C512,505.284,505.284,512,497,512z"/>
	</g>
	<g>
		<path style="fill:#FF4C04;" d="M481.5,271h-451c-8.284,0-15-6.716-15-15s6.716-15,15-15h451c8.284,0,15,6.716,15,15    S489.784,271,481.5,271z"/>
	</g>
	<path style="fill:#56281B;" d="M394.201,168.643C386.621,127.232,358.717,49.5,256.026,49.5c-17.659,0-33.128,1.795-46.686,4.979   c10.491,68.444,69.771,121.034,141.102,121.034C365.701,175.513,380.405,173.096,394.201,168.643z"/>
	<path style="fill:#873F2E;" d="M114.466,183.517c15.339,5.647,31.906,8.733,49.18,8.733c76.216,0,138.671-60.039,142.557-135.305   c-14.345-4.705-30.942-7.445-50.177-7.445C123.477,49.5,114.01,150.437,114.466,183.517z"/>
	<path style="fill:#E10000;" d="M481.5,241H256v30h225.5c8.284,0,15-6.716,15-15S489.784,241,481.5,241z"/>
	<path style="fill:#6D3326;" d="M256.026,49.5c-0.009,0-0.018,0-0.026,0v108.756c29.043-24.701,48.112-60.797,50.203-101.311   C291.858,52.24,275.261,49.5,256.026,49.5z"/>
</g>















</svg>
