<svg height="511pt" viewBox="-71 0 511 511.99979" width="511pt" xmlns="http://www.w3.org/2000/svg"><path d="m282.773438 362.289062h72.011718c8.285156 0 15 6.714844 15 15v119.710938c0 8.285156-6.714844 15-15 15h-72.011718c-8.285157 0-15-6.714844-15-15v-119.710938c0-8.285156 6.714843-15 15-15zm0 0" fill="#fdbf00"/><path d="m221.148438 512h-72.011719c-8.285157 0-15-6.714844-15-15v-186.625c0-8.285156 6.714843-15 15-15h72.011719c8.285156 0 15 6.714844 15 15v186.625c0 8.285156-6.714844 15-15 15zm0 0" fill="#ffd74a"/><path d="m15.5 182.855469h72.015625c8.28125 0 15 6.714843 15 15v299.144531c0 8.285156-6.71875 15-15 15h-72.015625c-8.285156 0-15-6.714844-15-15v-299.144531c0-8.285157 6.714844-15 15-15zm0 0" fill="#ffd74a"/><path d="m282.773438 362.289062h72.011718c8.285156 0 15 6.714844 15 15v59.855469h-102.011718v-59.855469c0-8.285156 6.714843-15 15-15zm0 0" fill="#ff9f00"/><g fill="#fdbf00"><path d="m.5 257.644531h102.015625v59.855469h-102.015625zm0 0"/><path d="m.5 377.355469h102.015625v59.855469h-102.015625zm0 0"/><path d="m236.148438 433.613281v63.386719c0 8.285156-6.714844 15-15 15h-36.003907v-78.386719l25.503907-38.804687zm0 0"/><path d="m185.144531 295.375h36.003907c8.285156 0 15 6.714844 15 15v63.386719l-25.503907 21.046875-25.503906-21.046875v-78.386719zm0 0"/><path d="m134.136719 373.757812h102.015625v59.855469h-102.015625zm0 0"/></g><path d="m185.144531 373.757812h51.003907v59.855469h-51.003907zm0 0" fill="#ff9f00"/><path d="m356.953125 206.148438-12.648437-53.386719c-1.910157-8.058594-9.992188-13.046875-18.054688-11.136719-8.058594 1.910156-13.046875 9.996094-11.136719 18.054688l4.207031 17.742187-283.65625-175.183594c-7.046874-4.351562-16.292968-2.1679685-20.644531 4.882813-4.351562 7.046875-2.167969 16.289062 4.878907 20.644531l284.125 175.472656-17.746094 4.1875c-8.0625 1.898438-13.058594 9.976563-11.15625 18.042969 1.628906 6.902344 7.785156 11.558594 14.585937 11.558594 1.140625 0 2.300781-.132813 3.457031-.40625l52.636719-12.414063c3.875-.914062 7.230469-3.332031 9.320313-6.71875s2.75-7.464843 1.832031-11.339843zm0 0" fill="#ff415b"/><path d="m356.953125 206.148438-12.648437-53.386719c-1.910157-8.058594-9.992188-13.046875-18.054688-11.136719-8.058594 1.910156-13.046875 9.996094-11.136719 18.054688l4.207031 17.742187-134.25-82.910156v35.257812l118.953126 73.46875-17.746094 4.183594c-8.0625 1.902344-13.058594 9.980469-11.15625 18.042969 1.628906 6.90625 7.785156 11.5625 14.585937 11.5625 1.140625 0 2.300781-.132813 3.457031-.40625l52.636719-12.414063c3.875-.914062 7.230469-3.332031 9.320313-6.71875s2.75-7.464843 1.832031-11.339843zm0 0" fill="#c7011c"/></svg>